<svg id="Lag_1" data-name="Lag 1" xmlns="http://www.w3.org/2000/svg" viewBox="0 0 16 16"><defs><style>.cls-1{fill:#1b3d59;}.cls-1,.cls-2,.cls-3{stroke:#fff;stroke-width:0.5px;}.cls-2{fill:#bf0404;}.cls-3{fill:none;}</style></defs><title>Tegnebræt 1</title><g id="Card_icon" data-name="Card icon"><g id="Card_1" data-name="Card 1"><path id="Path_1-2" data-name="Path 1-2" class="cls-1" d="M2,4.51,6.83,3a.82.82,0,0,1,1,.54l2.85,9.33a.82.82,0,0,1-.54,1L5.34,15.4a.82.82,0,0,1-1-.54L1.47,5.52a.82.82,0,0,1,.54-1Z"/></g><g id="Card_1-2" data-name="Card 1-2"><path id="Path_1-3" data-name="Path 1-3" class="cls-2" d="M7.7,1,12.82.57a.83.83,0,0,1,.9.75h0l.84,9.92a.83.83,0,0,1-.75.89h0l-5.13.44a.82.82,0,0,1-.89-.74v0h0L6.94,1.9A.83.83,0,0,1,7.69,1Z"/></g></g><line class="cls-3" x1="10.77" y1="5.25" x2="10.96" y2="8"/><line class="cls-3" x1="12.24" y1="6.5" x2="9.49" y2="6.75"/></svg>